<svg width="25" height="25" viewBox="0 0 25 25" fill="none" xmlns="http://www.w3.org/2000/svg">
<g opacity="0.2">
<path fill-rule="evenodd" clip-rule="evenodd" d="M6.25065 2.08398C3.94946 2.08398 2.08398 3.94946 2.08398 6.25065V18.7507C2.08398 21.0518 3.94946 22.9173 6.25065 22.9173H11.833V14.847H9.37565V11.6895H11.8276V9.37225C11.8276 6.67721 13.3254 5.20915 15.5069 5.20915C16.2425 5.20599 16.9776 5.24771 17.709 5.33411V8.1492H16.2058C15.0196 8.1492 14.7893 8.77302 14.7893 9.68416V11.6954H17.6242L17.2573 14.8529H14.7893V22.9173H18.7507C21.0518 22.9173 22.9173 21.0518 22.9173 18.7507V6.25065C22.9173 3.94946 21.0518 2.08398 18.7507 2.08398H6.25065Z" fill="white"/>
</g>
</svg>
