<svg width="25" height="25" viewBox="0 0 25 25" fill="none" xmlns="http://www.w3.org/2000/svg">
<path d="M12.5007 2.08398C15.3309 2.08398 15.684 2.0944 16.7944 2.14648C17.9038 2.19857 18.659 2.37253 19.3236 2.63086C20.0111 2.89544 20.5902 3.25378 21.1694 3.8319C21.6991 4.35263 22.1089 4.98251 22.3704 5.67773C22.6277 6.34128 22.8027 7.09753 22.8548 8.2069C22.9038 9.31732 22.9173 9.67044 22.9173 12.5007C22.9173 15.3309 22.9069 15.684 22.8548 16.7944C22.8027 17.9038 22.6277 18.659 22.3704 19.3236C22.1097 20.0192 21.6997 20.6492 21.1694 21.1694C20.6485 21.6989 20.0187 22.1087 19.3236 22.3704C18.66 22.6277 17.9038 22.8027 16.7944 22.8548C15.684 22.9038 15.3309 22.9173 12.5007 22.9173C9.67044 22.9173 9.31732 22.9069 8.2069 22.8548C7.09753 22.8027 6.34232 22.6277 5.67773 22.3704C4.98224 22.1095 4.35224 21.6996 3.8319 21.1694C3.30212 20.6488 2.89225 20.0188 2.63086 19.3236C2.37253 18.66 2.19857 17.9038 2.14648 16.7944C2.09753 15.684 2.08398 15.3309 2.08398 12.5007C2.08398 9.67044 2.0944 9.31732 2.14648 8.2069C2.19857 7.09648 2.37253 6.34232 2.63086 5.67773C2.89152 4.98209 3.30149 4.35203 3.8319 3.8319C4.35239 3.30193 4.98235 2.89204 5.67773 2.63086C6.34232 2.37253 7.09648 2.19857 8.2069 2.14648C9.31732 2.09753 9.67044 2.08398 12.5007 2.08398ZM12.5007 7.29232C11.1193 7.29232 9.79456 7.84105 8.8178 8.8178C7.84105 9.79456 7.29232 11.1193 7.29232 12.5007C7.29232 13.882 7.84105 15.2067 8.8178 16.1835C9.79456 17.1603 11.1193 17.709 12.5007 17.709C13.882 17.709 15.2067 17.1603 16.1835 16.1835C17.1603 15.2067 17.709 13.882 17.709 12.5007C17.709 11.1193 17.1603 9.79456 16.1835 8.8178C15.2067 7.84105 13.882 7.29232 12.5007 7.29232V7.29232ZM19.2715 7.0319C19.2715 6.68657 19.1343 6.35538 18.8901 6.11119C18.6459 5.867 18.3147 5.72982 17.9694 5.72982C17.6241 5.72982 17.2929 5.867 17.0487 6.11119C16.8045 6.35538 16.6673 6.68657 16.6673 7.0319C16.6673 7.37724 16.8045 7.70843 17.0487 7.95261C17.2929 8.1968 17.6241 8.33398 17.9694 8.33398C18.3147 8.33398 18.6459 8.1968 18.8901 7.95261C19.1343 7.70843 19.2715 7.37724 19.2715 7.0319ZM12.5007 9.37565C13.3295 9.37565 14.1243 9.70489 14.7104 10.2909C15.2964 10.877 15.6257 11.6719 15.6257 12.5007C15.6257 13.3295 15.2964 14.1243 14.7104 14.7104C14.1243 15.2964 13.3295 15.6257 12.5007 15.6257C11.6719 15.6257 10.877 15.2964 10.2909 14.7104C9.70489 14.1243 9.37565 13.3295 9.37565 12.5007C9.37565 11.6719 9.70489 10.877 10.2909 10.2909C10.877 9.70489 11.6719 9.37565 12.5007 9.37565V9.37565Z" fill="white"/>
</svg>
