<svg width="25" height="25" viewBox="0 0 25 25" fill="none" xmlns="http://www.w3.org/2000/svg">
<g opacity="0.2" clip-path="url(#clip0_2159_5868)">
<path d="M24.8362 7.26514C24.8362 5.06787 23.22 3.30029 21.223 3.30029C18.5179 3.17383 15.7591 3.125 12.9397 3.125H12.0608C9.24834 3.125 6.48467 3.17383 3.77959 3.30078C1.78741 3.30078 0.171195 5.07812 0.171195 7.27539C0.0491251 9.01318 -0.00263276 10.7515 0.000296928 12.4897C-0.00458588 14.228 0.0507527 15.9679 0.166313 17.7095C0.166313 19.9067 1.78252 21.689 3.77471 21.689C6.61651 21.8208 9.53155 21.8794 12.4954 21.8745C15.4642 21.8843 18.3711 21.8224 21.2161 21.689C23.2132 21.689 24.8294 19.9067 24.8294 17.7095C24.9466 15.9663 25.0003 14.228 24.9954 12.4849C25.0065 10.7466 24.9534 9.00667 24.8362 7.26514ZM10.1077 17.2798V7.68506L17.1878 12.48L10.1077 17.2798Z" fill="white"/>
</g>
<defs>
<clipPath id="clip0_2159_5868">
<rect width="25" height="25" fill="white"/>
</clipPath>
</defs>
</svg>
